<svg width="27" height="28" viewBox="0 0 27 28" fill="none" xmlns="http://www.w3.org/2000/svg">
<path d="M2.8125 22.1665V8.1665H24.1875V22.1665C24.1875 23.4498 23.175 24.4998 21.9375 24.4998H5.0625C3.825 24.4998 2.8125 23.4498 2.8125 22.1665Z" fill="#CFD8DC"/>
<path d="M24.1875 5.83333V9.33333H2.8125V5.83333C2.8125 4.55 3.825 3.5 5.0625 3.5H21.9375C23.175 3.5 24.1875 4.55 24.1875 5.83333Z" fill="#FF7A00"/>
<path d="M18.5625 7.5835C19.4945 7.5835 20.25 6.79999 20.25 5.8335C20.25 4.867 19.4945 4.0835 18.5625 4.0835C17.6305 4.0835 16.875 4.867 16.875 5.8335C16.875 6.79999 17.6305 7.5835 18.5625 7.5835Z" fill="#FF7A00"/>
<path d="M8.4375 7.5835C9.36948 7.5835 10.125 6.79999 10.125 5.8335C10.125 4.867 9.36948 4.0835 8.4375 4.0835C7.50552 4.0835 6.75 4.867 6.75 5.8335C6.75 6.79999 7.50552 7.5835 8.4375 7.5835Z" fill="#FF7A00"/>
<path d="M18.5625 1.75C17.9438 1.75 17.4375 2.275 17.4375 2.91667V5.83333C17.4375 6.475 17.9438 7 18.5625 7C19.1812 7 19.6875 6.475 19.6875 5.83333V2.91667C19.6875 2.275 19.1812 1.75 18.5625 1.75ZM8.4375 1.75C7.81875 1.75 7.3125 2.275 7.3125 2.91667V5.83333C7.3125 6.475 7.81875 7 8.4375 7C9.05625 7 9.5625 6.475 9.5625 5.83333V2.91667C9.5625 2.275 9.05625 1.75 8.4375 1.75Z" fill="#B0BEC5"/>
<path d="M7.3125 11.6665H9.5625V13.9998H7.3125V11.6665ZM10.6875 11.6665H12.9375V13.9998H10.6875V11.6665ZM14.0625 11.6665H16.3125V13.9998H14.0625V11.6665ZM17.4375 11.6665H19.6875V13.9998H17.4375V11.6665ZM7.3125 15.1665H9.5625V17.4998H7.3125V15.1665ZM10.6875 15.1665H12.9375V17.4998H10.6875V15.1665ZM14.0625 15.1665H16.3125V17.4998H14.0625V15.1665ZM17.4375 15.1665H19.6875V17.4998H17.4375V15.1665ZM7.3125 18.6665H9.5625V20.9998H7.3125V18.6665ZM10.6875 18.6665H12.9375V20.9998H10.6875V18.6665ZM14.0625 18.6665H16.3125V20.9998H14.0625V18.6665ZM17.4375 18.6665H19.6875V20.9998H17.4375V18.6665Z" fill="#327694"/>
</svg>
